<?xml version="1.0" encoding="UTF-8" standalone="no"?>
<!DOCTYPE svg PUBLIC "-//W3C//DTD SVG 1.1//EN" "http://www.w3.org/Graphics/SVG/1.1/DTD/svg11.dtd">
<svg version="1.1" xmlns="http://www.w3.org/2000/svg" xmlns:xlink="http://www.w3.org/1999/xlink" preserveAspectRatio="xMidYMid meet" viewBox="116.82768038617886 41.7306364033845 55.565548780487774 55.0193635966155" width="47" height="46.5"><defs><path d="M121.56 93.02L124.18 83.62L140.08 83.6L124.96 80.64L132.07 55.12L139 80.51C131.35 80.51 126.56 80.51 124.65 80.51C124.53 80.51 124.51 80.69 124.63 80.71C126.65 81.1 131.7 82.06 139.78 83.61L142.3 93.02L145.34 93.02L135.27 56.22L150.31 81.53L165.49 55.76L165.44 93.02L168.65 93.02L168.65 44.92L150.2 75.49L131.98 44.49L118.65 93.02L121.56 93.02Z" id="hXnxkjHTp"></path><path d="M117.83 42.73L169.39 42.73L169.39 93.75L117.83 93.75L117.83 42.73Z" id="b5wf7G9TR5"></path></defs><g><g><g><use xlink:href="#hXnxkjHTp" opacity="1" fill="#ffffff" fill-opacity="1"></use><g><use xlink:href="#hXnxkjHTp" opacity="1" fill-opacity="0" stroke="#ffffff" stroke-width="1" stroke-opacity="1"></use></g></g></g><g><use xlink:href="#b5wf7G9TR5" opacity="1" fill="#ffffff" fill-opacity="0"></use></g></g></svg>